<?xml version="1.0" encoding="UTF-8"?>
<svg xmlns="http://www.w3.org/2000/svg" xmlns:xlink="http://www.w3.org/1999/xlink" width="32pt" height="32pt" viewBox="0 0 32 32" version="1.1">
<g id="surface1">
<path style=" stroke:none;fill-rule:nonzero;fill:rgb(27.45098%,29.411765%,32.156863%);fill-opacity:1;" d="M 0.824219 31.175781 C 0.292969 30.640625 0 29.933594 0 29.179688 C 0 28.425781 0.292969 27.71875 0.824219 27.1875 L 21.441406 6.570312 C 21.808594 6.203125 22.402344 6.203125 22.769531 6.570312 L 25.429688 9.234375 C 25.605469 9.410156 25.707031 9.648438 25.707031 9.894531 C 25.707031 10.144531 25.605469 10.382812 25.429688 10.558594 L 4.816406 31.175781 C 4.265625 31.722656 3.542969 32 2.820312 32 C 2.097656 32 1.375 31.722656 0.824219 31.175781 Z M 0.824219 31.175781 "/>
<path style=" stroke:none;fill-rule:nonzero;fill:rgb(16.078431%,16.862745%,18.431373%);fill-opacity:1;" d="M 25.429688 9.234375 C 25.605469 9.410156 25.707031 9.648438 25.707031 9.894531 C 25.707031 10.144531 25.605469 10.382812 25.429688 10.558594 L 4.816406 31.175781 C 4.265625 31.722656 3.542969 32 2.820312 32 C 2.097656 32 1.375 31.722656 0.824219 31.175781 L 24.097656 7.902344 Z M 25.429688 9.234375 "/>
<path style=" stroke:none;fill-rule:nonzero;fill:rgb(46.27451%,80.784314%,98.431373%);fill-opacity:1;" d="M 32 12.234375 C 32 18.992188 26.523438 24.46875 19.765625 24.46875 C 13.007812 24.46875 7.53125 18.992188 7.53125 12.234375 C 7.53125 5.476562 13.007812 0 19.765625 0 C 26.523438 0 32 5.476562 32 12.234375 Z M 32 12.234375 "/>
<path style=" stroke:none;fill-rule:nonzero;fill:rgb(40.784314%,59.215686%,95.686275%);fill-opacity:1;" d="M 28.414062 3.589844 C 30.628906 5.804688 32 8.863281 32 12.234375 C 32 18.980469 26.511719 24.46875 19.765625 24.46875 C 16.394531 24.46875 13.335938 23.097656 11.117188 20.882812 Z M 28.414062 3.589844 "/>
<path style=" stroke:none;fill-rule:nonzero;fill:rgb(88.235294%,98.039216%,100%);fill-opacity:1;" d="M 28.234375 12.234375 C 28.234375 16.914062 24.441406 20.703125 19.765625 20.703125 C 15.089844 20.703125 11.296875 16.914062 11.296875 12.234375 C 11.296875 7.558594 15.089844 3.765625 19.765625 3.765625 C 24.441406 3.765625 28.234375 7.558594 28.234375 12.234375 Z M 28.234375 12.234375 "/>
<path style=" stroke:none;fill-rule:nonzero;fill:rgb(78.039216%,96.078431%,100%);fill-opacity:1;" d="M 19.765625 20.703125 C 17.429688 20.703125 15.3125 19.753906 13.78125 18.21875 L 25.75 6.25 C 27.285156 7.78125 28.234375 9.898438 28.234375 12.234375 C 28.234375 16.90625 24.433594 20.703125 19.765625 20.703125 Z M 19.765625 20.703125 "/>
</g>
</svg>
